<?xml version="1.0" encoding="utf-8"?>
<!-- Generator: Adobe Illustrator 18.1.1, SVG Export Plug-In . SVG Version: 6.00 Build 0)  -->
<svg version="1.1" id="logo" xmlns="http://www.w3.org/2000/svg" xmlns:xlink="http://www.w3.org/1999/xlink" x="0px" y="0px"
	 viewBox="0 0 371.7 69.2" enable-background="new 0 0 371.7 69.2" xml:space="preserve">
<g>
	<g>
		<path fill="#003B71" d="M130.6,50.3c-2.7,3.7-5.9,6.4-9.5,8c-3.6,1.6-7.5,2.4-11.7,2.4c-4.4,0-8.3-0.7-12-2.2
			c-3.6-1.5-6.7-3.5-9.3-6.2c-2.6-2.7-4.6-5.8-6-9.5c-1.5-3.7-2.2-7.7-2.2-12.1c0-4.4,0.7-8.4,2.2-12c1.5-3.7,3.5-6.8,6-9.5
			c2.6-2.7,5.7-4.7,9.3-6.3c3.6-1.5,7.6-2.3,12-2.3c3.9,0,7.5,0.7,10.8,2.1c3.4,1.4,6.3,3.7,8.8,6.9l-4.4,3.6
			c-1.8-2.7-4-4.6-6.8-5.9c-2.8-1.2-5.6-1.9-8.5-1.9c-3.7,0-7.1,0.6-10,1.9s-5.5,3.1-7.6,5.3s-3.7,4.9-4.8,8
			c-1.1,3.1-1.7,6.4-1.7,9.9s0.6,6.9,1.7,9.9c1.1,3.1,2.7,5.7,4.8,8s4.6,4,7.6,5.3s6.3,1.9,10,1.9c1.5,0,3-0.2,4.5-0.5
			c1.6-0.3,3.1-0.9,4.6-1.6c1.5-0.7,2.9-1.6,4.2-2.7c1.3-1.1,2.5-2.4,3.5-4L130.6,50.3z"/>
		<path fill="#003B71" d="M138.3,2.1h5.3v25.2h31.9V2.1h5.3v57.1h-5.3V32.1h-31.9v27.1h-5.3V2.1z"/>
		<path fill="#003B71" d="M194.5,2.1h5.3v57.1h-5.3V2.1z"/>
		<path fill="#003B71" d="M213.5,2.1h15c0.8,0,1.8,0,3.1,0.1c1.3,0.1,2.7,0.2,4.2,0.5c1.5,0.3,3,0.7,4.6,1.3c1.6,0.6,3,1.5,4.2,2.6
			c1.2,1.1,2.3,2.6,3.1,4.3c0.8,1.7,1.2,3.8,1.2,6.3c0,2.7-0.5,5-1.4,6.8c-0.9,1.8-2.1,3.2-3.5,4.3c-1.4,1.1-3,1.9-4.7,2.5
			c-1.7,0.5-3.4,0.9-4.9,1.1l16.6,27.4h-6l-16-27.1h-9.9v27.1h-5.3V2.1z M218.8,27.3h11.3c2.8,0,5.1-0.3,6.8-1
			c1.7-0.7,3.1-1.6,4.1-2.6c1-1,1.6-2.1,2-3.3c0.3-1.2,0.5-2.3,0.5-3.2s-0.2-2-0.5-3.2c-0.4-1.2-1-2.3-2-3.3c-1-1-2.3-1.9-4.1-2.6
			c-1.7-0.7-4-1-6.8-1h-11.3V27.3z"/>
		<path fill="#003B71" d="M255.6,30.7c0-4.4,0.7-8.4,2.2-12c1.5-3.7,3.5-6.8,6-9.5c2.6-2.7,5.7-4.7,9.3-6.3c3.6-1.5,7.6-2.3,12-2.3
			s8.3,0.8,12,2.3c3.6,1.5,6.7,3.6,9.3,6.3s4.6,5.8,6,9.5c1.5,3.7,2.2,7.7,2.2,12c0,4.4-0.7,8.4-2.2,12.1c-1.5,3.7-3.5,6.9-6,9.5
			s-5.7,4.7-9.3,6.2c-3.6,1.5-7.6,2.2-12,2.2s-8.3-0.7-12-2.2c-3.6-1.5-6.7-3.5-9.3-6.2c-2.6-2.7-4.6-5.8-6-9.5
			C256.3,39.1,255.6,35,255.6,30.7z M260.9,30.7c0,3.5,0.6,6.9,1.7,9.9c1.1,3.1,2.7,5.7,4.8,8s4.6,4,7.6,5.3s6.3,1.9,10,1.9
			s7.1-0.6,10-1.9s5.5-3.1,7.6-5.3c2.1-2.3,3.7-4.9,4.8-8c1.1-3.1,1.7-6.4,1.7-9.9s-0.6-6.9-1.7-9.9s-2.7-5.7-4.8-8
			c-2.1-2.3-4.6-4-7.6-5.3s-6.3-1.9-10-1.9s-7.1,0.6-10,1.9s-5.5,3.1-7.6,5.3s-3.7,4.9-4.8,8C261.5,23.8,260.9,27.1,260.9,30.7z"/>
		<path fill="#003B71" d="M324.6,2.1h6.9l34.8,50h0.2v-50h5.3v57.1h-6.9L330,9.2h-0.2v50h-5.3V2.1z"/>
	</g>
	<g>
		<polygon fill="#4C8B2B" points="34.2,25.9 47.5,32.7 34.2,6.4 20.9,32.7 		"/>
		<polygon fill="#003B71" points="54.9,37 34.2,52.4 13.5,37 13.5,13.7 0,0.2 0,45.5 34.2,69.2 68.5,45.5 68.5,0 54.9,13.5 		"/>
	</g>
</g>
</svg>
